<svg width="512" height="512" viewBox="0 0 512 512" fill="none" xmlns="http://www.w3.org/2000/svg">
<rect width="512" height="512" rx="150" fill="white"/>
<g filter="url(#filter0_di_5_2)">
<path d="M300.841 88C350.546 88.0004 390.841 128.295 390.841 178V265.287C390.841 300.167 370.998 330.411 341.987 345.351L390.5 405.5C396.142 412.554 391.12 423.003 382.087 423.003H348.99C343.079 423.003 337.47 420.387 333.67 415.858L282.844 355.287H212.128C198.89 355.287 186.32 352.428 175 347.295V413C175 418.523 170.523 423 165 423H132C126.477 423 122 418.523 122 413V245C122 239.477 126.477 235 132 235H165C170.523 235 175 239.477 175 245V247.171C177.017 278.483 203.051 303.255 234.872 303.255H276.67C309.807 303.255 336.67 276.392 336.67 243.255V201.457C336.67 168.32 309.807 141.457 276.67 141.457H234.872C203.611 141.457 177.934 165.366 175.128 195.896V200C175.128 205.523 170.651 210 165.128 210H132.128C126.769 210 122.395 205.785 122.14 200.489H122.128V178C122.128 128.294 162.423 88 212.128 88H300.841Z" fill="#2663EB"/>
</g>
<defs>
<filter id="filter0_di_5_2" x="114" y="80" width="284.88" height="347.003" filterUnits="userSpaceOnUse" color-interpolation-filters="sRGB">
<feFlood flood-opacity="0" result="BackgroundImageFix"/>
<feColorMatrix in="SourceAlpha" type="matrix" values="0 0 0 0 0 0 0 0 0 0 0 0 0 0 0 0 0 0 127 0" result="hardAlpha"/>
<feOffset dx="4" dy="2"/>
<feGaussianBlur stdDeviation="1"/>
<feComposite in2="hardAlpha" operator="out"/>
<feColorMatrix type="matrix" values="0 0 0 0 0 0 0 0 0 0 0 0 0 0 0 0 0 0 0.2 0"/>
<feBlend mode="normal" in2="BackgroundImageFix" result="effect1_dropShadow_5_2"/>
<feBlend mode="normal" in="SourceGraphic" in2="effect1_dropShadow_5_2" result="shape"/>
<feColorMatrix in="SourceAlpha" type="matrix" values="0 0 0 0 0 0 0 0 0 0 0 0 0 0 0 0 0 0 127 0" result="hardAlpha"/>
<feOffset dx="-8" dy="-8"/>
<feGaussianBlur stdDeviation="5"/>
<feComposite in2="hardAlpha" operator="arithmetic" k2="-1" k3="1"/>
<feColorMatrix type="matrix" values="0 0 0 0 0 0 0 0 0 0 0 0 0 0 0 0 0 0 0.2 0"/>
<feBlend mode="normal" in2="shape" result="effect2_innerShadow_5_2"/>
</filter>
</defs>
</svg>
